<svg xmlns="http://www.w3.org/2000/svg" viewBox="0 0 1600 900" preserveAspectRatio="xMidYMid slice"><defs><linearGradient id="g" x1="0" y1="0" x2="1" y2="0"><stop offset="0%" stop-color="#483ea8" stop-opacity="0"/><stop offset="22%" stop-color="#483ea8"/><stop offset="70%" stop-color="#e5097f"/><stop offset="100%" stop-color="#e5097f" stop-opacity="0"/></linearGradient></defs><g fill="none" stroke="url(#g)" vector-effect="non-scaling-stroke"><path d="M-40 354.4L-20 359.2L0 363.4L20 366.9L40 369.7L60 371.7L80 372.8L100 373.2L120 372.8L140 371.5L160 369.4L180 366.6L200 363.1L220 359.0L240 354.3L260 349.1L280 343.5L300 337.6L320 331.4L340 325.1L360 318.7L380 312.4L400 306.2L420 300.1L440 294.3L460 288.7L480 283.5L500 278.6L520 274.1L540 270.0L560 266.2L580 262.8L600 259.8L620 257.0L640 254.5L660 252.1L680 249.9L700 247.7L720 245.5L740 243.2L760 240.7L780 238.1L800 235.1L820 231.8L840 228.1L860 223.9L880 219.3L900 214.1L920 208.5L940 202.4L960 195.8L980 188.8L1000 181.4L1020 173.6L1040 165.5L1060 157.3L1080 148.9L1100 140.4L1120 132.1L1140 123.8L1160 115.8L1180 108.2L1200 101.0L1220 94.3L1240 88.2L1260 82.8L1280 78.2L1300 74.4L1320 71.4L1340 69.3L1360 68.0L1380 67.7L1400 68.2L1420 69.5L1440 71.7L1460 74.6L1480 78.2L1500 82.3L1520 87.0L1540 92.1L1560 97.6L1580 103.2L1600 109.0L1620 114.8L1640 120.5" stroke-width="1.1" stroke-opacity="0.450"/><path d="M-40 365.9L-20 370.7L0 375.0L20 378.6L40 381.5L60 383.6L80 384.9L100 385.3L120 385.0L140 383.8L160 381.8L180 379.0L200 375.4L220 371.2L240 366.4L260 361.0L280 355.2L300 349.0L320 342.5L340 335.9L360 329.1L380 322.3L400 315.5L420 308.9L440 302.6L460 296.5L480 290.7L500 285.2L520 280.2L540 275.5L560 271.3L580 267.4L600 264.0L620 260.8L640 258.0L660 255.4L680 253.0L700 250.7L720 248.4L740 246.2L760 243.8L780 241.3L800 238.6L820 235.6L840 232.2L860 228.5L880 224.3L900 219.7L920 214.6L940 209.1L960 203.1L980 196.6L1000 189.7L1020 182.5L1040 175.0L1060 167.2L1080 159.3L1100 151.3L1120 143.2L1140 135.3L1160 127.6L1180 120.2L1200 113.2L1220 106.6L1240 100.7L1260 95.3L1280 90.7L1300 86.8L1320 83.7L1340 81.5L1360 80.2L1380 79.7L1400 80.1L1420 81.3L1440 83.4L1460 86.2L1480 89.7L1500 93.9L1520 98.5L1540 103.7L1560 109.2L1580 115.0L1600 120.9L1620 126.8L1640 132.8" stroke-width="1.1" stroke-opacity="0.519"/><path d="M-40 377.0L-20 381.8L0 386.1L20 389.8L40 392.8L60 395.0L80 396.4L100 397.0L120 396.7L140 395.6L160 393.6L180 390.8L200 387.3L220 383.0L240 378.1L260 372.6L280 366.6L300 360.2L320 353.4L340 346.4L360 339.2L380 332.0L400 324.8L420 317.8L440 310.9L460 304.3L480 297.9L500 292.0L520 286.4L540 281.2L560 276.5L580 272.2L600 268.3L620 264.8L640 261.6L660 258.8L680 256.1L700 253.7L720 251.4L740 249.2L760 247.0L780 244.6L800 242.1L820 239.4L840 236.4L860 233.1L880 229.4L900 225.3L920 220.8L940 215.8L960 210.3L980 204.5L1000 198.2L1020 191.5L1040 184.5L1060 177.3L1080 169.9L1100 162.3L1120 154.7L1140 147.2L1160 139.8L1180 132.6L1200 125.8L1220 119.4L1240 113.5L1260 108.2L1280 103.6L1300 99.7L1320 96.6L1340 94.3L1360 92.8L1380 92.2L1400 92.5L1420 93.6L1440 95.5L1460 98.2L1480 101.6L1500 105.6L1520 110.3L1540 115.4L1560 120.9L1580 126.7L1600 132.7L1620 138.8L1640 144.9" stroke-width="1.1" stroke-opacity="0.587"/><path d="M-40 387.7L-20 392.5L0 396.8L20 400.6L40 403.6L60 405.9L80 407.4L100 408.0L120 407.8L140 406.8L160 404.9L180 402.2L200 398.7L220 394.4L240 389.4L260 383.8L280 377.7L300 371.0L320 364.0L340 356.8L360 349.3L380 341.7L400 334.1L420 326.6L440 319.2L460 312.1L480 305.3L500 298.8L520 292.7L540 287.1L560 281.8L580 277.1L600 272.8L620 268.9L640 265.4L660 262.3L680 259.5L700 256.9L720 254.6L740 252.4L760 250.2L780 248.0L800 245.8L820 243.3L840 240.7L860 237.8L880 234.5L900 230.9L920 226.9L940 222.5L960 217.6L980 212.4L1000 206.7L1020 200.6L1040 194.2L1060 187.5L1080 180.6L1100 173.5L1120 166.4L1140 159.2L1160 152.2L1180 145.3L1200 138.7L1220 132.5L1240 126.8L1260 121.5L1280 116.9L1300 113.0L1320 109.8L1340 107.4L1360 105.9L1380 105.1L1400 105.2L1420 106.2L1440 107.9L1460 110.5L1480 113.7L1500 117.7L1520 122.2L1540 127.2L1560 132.7L1580 138.5L1600 144.6L1620 150.7L1640 156.9" stroke-width="2" stroke-opacity="0.652"/><path d="M-40 398.0L-20 402.8L0 407.1L20 410.8L40 413.9L60 416.2L80 417.8L100 418.6L120 418.5L140 417.5L160 415.7L180 413.1L200 409.6L220 405.3L240 400.3L260 394.7L280 388.4L300 381.6L320 374.4L340 366.9L360 359.1L380 351.2L400 343.3L420 335.4L440 327.6L460 320.0L480 312.7L500 305.7L520 299.2L540 293.0L560 287.4L580 282.2L600 277.5L620 273.2L640 269.4L660 266.0L680 263.0L700 260.3L720 257.9L740 255.7L760 253.6L780 251.5L800 249.5L820 247.3L840 245.0L860 242.5L880 239.7L900 236.6L920 233.1L940 229.3L960 225.0L980 220.3L1000 215.3L1020 209.8L1040 204.0L1060 197.9L1080 191.5L1100 184.9L1120 178.3L1140 171.5L1160 164.9L1180 158.3L1200 152.0L1220 146.0L1240 140.4L1260 135.3L1280 130.7L1300 126.8L1320 123.5L1340 121.0L1360 119.3L1380 118.4L1400 118.4L1420 119.1L1440 120.7L1460 123.0L1480 126.1L1500 129.9L1520 134.3L1540 139.2L1560 144.6L1580 150.4L1600 156.4L1620 162.6L1640 168.8" stroke-width="1.1" stroke-opacity="0.715"/><path d="M-40 408.0L-20 412.7L0 417.0L20 420.7L40 423.7L60 426.1L80 427.8L100 428.6L120 428.6L140 427.8L160 426.0L180 423.4L200 420.0L220 415.8L240 410.8L260 405.1L280 398.8L300 391.9L320 384.6L340 376.9L360 368.9L380 360.7L400 352.4L420 344.1L440 336.0L460 328.0L480 320.2L500 312.8L520 305.8L540 299.2L560 293.1L580 287.5L600 282.4L620 277.8L640 273.7L660 270.0L680 266.8L700 263.9L720 261.4L740 259.2L760 257.1L780 255.2L800 253.3L820 251.4L840 249.4L860 247.3L880 244.9L900 242.3L920 239.4L940 236.1L960 232.4L980 228.4L1000 223.9L1020 219.1L1040 213.9L1060 208.4L1080 202.6L1100 196.5L1120 190.3L1140 184.1L1160 177.8L1180 171.6L1200 165.6L1220 159.8L1240 154.3L1260 149.3L1280 144.8L1300 140.9L1320 137.6L1340 135.0L1360 133.2L1380 132.1L1400 131.9L1420 132.4L1440 133.8L1460 135.9L1480 138.8L1500 142.4L1520 146.6L1540 151.4L1560 156.7L1580 162.3L1600 168.3L1620 174.4L1640 180.6" stroke-width="1.1" stroke-opacity="0.773"/><path d="M-40 417.7L-20 422.2L0 426.4L20 430.0L40 433.1L60 435.5L80 437.2L100 438.1L120 438.2L140 437.5L160 435.8L180 433.3L200 430.0L220 425.8L240 420.9L260 415.2L280 408.9L300 401.9L320 394.5L340 386.6L360 378.4L380 370.0L400 361.5L420 352.9L440 344.4L460 336.0L480 327.9L500 320.1L520 312.6L540 305.6L560 299.1L580 293.1L600 287.6L620 282.6L640 278.2L660 274.3L680 270.8L700 267.8L720 265.2L740 262.9L760 260.9L780 259.0L800 257.3L820 255.7L840 254.0L860 252.2L880 250.3L900 248.1L920 245.7L940 243.0L960 239.9L980 236.5L1000 232.6L1020 228.4L1040 223.8L1060 218.9L1080 213.7L1100 208.2L1120 202.6L1140 196.8L1160 190.9L1180 185.1L1200 179.4L1220 173.8L1240 168.6L1260 163.7L1280 159.3L1300 155.4L1320 152.0L1340 149.4L1360 147.4L1380 146.2L1400 145.8L1420 146.1L1440 147.2L1460 149.1L1480 151.8L1500 155.1L1520 159.1L1540 163.7L1560 168.7L1580 174.3L1600 180.1L1620 186.1L1640 192.3" stroke-width="1.1" stroke-opacity="0.827"/><path d="M-40 427.0L-20 431.4L0 435.4L20 439.0L40 442.0L60 444.5L80 446.2L100 447.2L120 447.3L140 446.7L160 445.1L180 442.7L200 439.5L220 435.4L240 430.5L260 424.9L280 418.6L300 411.6L320 404.1L340 396.1L360 387.8L380 379.2L400 370.5L420 361.6L440 352.8L460 344.1L480 335.6L500 327.4L520 319.6L540 312.2L560 305.3L580 298.9L600 293.0L620 287.7L640 283.0L660 278.8L680 275.1L700 271.9L720 269.2L740 266.9L760 264.8L780 263.1L800 261.5L820 260.1L840 258.7L860 257.3L880 255.7L900 254.1L920 252.1L940 250.0L960 247.5L980 244.6L1000 241.4L1020 237.8L1040 233.9L1060 229.6L1080 225.0L1100 220.1L1120 214.9L1140 209.6L1160 204.2L1180 198.8L1200 193.4L1220 188.1L1240 183.1L1260 178.4L1280 174.0L1300 170.2L1320 166.8L1340 164.1L1360 162.0L1380 160.6L1400 160.0L1420 160.1L1440 160.9L1460 162.6L1480 164.9L1500 168.0L1520 171.7L1540 176.1L1560 180.9L1580 186.2L1600 191.9L1620 197.8L1640 203.9" stroke-width="1.1" stroke-opacity="0.874"/><path d="M-40 436.0L-20 440.2L0 444.1L20 447.6L40 450.5L60 452.9L80 454.7L100 455.7L120 455.9L140 455.4L160 454.0L180 451.7L200 448.6L220 444.6L240 439.8L260 434.2L280 428.0L300 421.0L320 413.5L340 405.5L360 397.1L380 388.3L400 379.4L420 370.4L440 361.3L460 352.3L480 343.5L500 335.0L520 326.8L540 319.1L560 311.8L580 305.0L600 298.8L620 293.2L640 288.1L660 283.7L680 279.8L700 276.4L720 273.5L740 271.1L760 269.1L780 267.4L800 266.0L820 264.7L840 263.6L860 262.5L880 261.3L900 260.1L920 258.7L940 257.0L960 255.1L980 252.8L1000 250.2L1020 247.3L1040 244.0L1060 240.3L1080 236.3L1100 232.0L1120 227.4L1140 222.6L1160 217.7L1180 212.6L1200 207.6L1220 202.7L1240 197.9L1260 193.3L1280 189.1L1300 185.2L1320 181.9L1340 179.1L1360 176.9L1380 175.3L1400 174.5L1420 174.3L1440 174.9L1460 176.3L1480 178.4L1500 181.1L1520 184.6L1540 188.6L1560 193.2L1580 198.3L1600 203.7L1620 209.5L1640 215.4" stroke-width="1.1" stroke-opacity="0.914"/><path d="M-40 444.7L-20 448.7L0 452.4L20 455.7L40 458.6L60 461.0L80 462.7L100 463.8L120 464.1L140 463.6L160 462.3L180 460.2L200 457.2L220 453.3L240 448.7L260 443.2L280 437.0L300 430.1L320 422.6L340 414.6L360 406.2L380 397.3L400 388.3L420 379.1L440 369.8L460 360.6L480 351.6L500 342.7L520 334.3L540 326.2L560 318.5L580 311.4L600 304.9L620 298.9L640 293.6L660 288.9L680 284.7L700 281.2L720 278.2L740 275.7L760 273.7L780 272.0L800 270.7L820 269.6L840 268.7L860 267.9L880 267.1L900 266.3L920 265.3L940 264.2L960 262.8L980 261.1L1000 259.2L1020 256.8L1040 254.1L1060 251.1L1080 247.7L1100 244.0L1120 240.0L1140 235.7L1160 231.2L1180 226.6L1200 222.0L1220 217.3L1240 212.8L1260 208.4L1280 204.3L1300 200.6L1320 197.2L1340 194.3L1360 192.0L1380 190.3L1400 189.2L1420 188.9L1440 189.2L1460 190.2L1480 192.0L1500 194.4L1520 197.5L1540 201.3L1560 205.5L1580 210.3L1600 215.5L1620 221.0L1640 226.8" stroke-width="1.1" stroke-opacity="0.948"/><path d="M-40 453.2L-20 456.9L0 460.4L20 463.6L40 466.3L60 468.6L80 470.3L100 471.4L120 471.8L140 471.4L160 470.2L180 468.2L200 465.3L220 461.6L240 457.1L260 451.8L280 445.7L300 438.9L320 431.5L340 423.5L360 415.1L380 406.2L400 397.1L420 387.8L440 378.4L460 369.0L480 359.7L500 350.7L520 341.9L540 333.5L560 325.6L580 318.2L600 311.3L620 305.1L640 299.4L660 294.4L680 290.1L700 286.3L720 283.2L740 280.6L760 278.5L780 276.9L800 275.7L820 274.7L840 274.0L860 273.5L880 273.1L900 272.6L920 272.1L940 271.4L960 270.6L980 269.5L1000 268.1L1020 266.4L1040 264.3L1060 261.9L1080 259.1L1100 256.0L1120 252.6L1140 248.8L1160 244.9L1180 240.7L1200 236.5L1220 232.2L1240 227.9L1260 223.7L1280 219.8L1300 216.1L1320 212.7L1340 209.8L1360 207.4L1380 205.5L1400 204.3L1420 203.6L1440 203.7L1460 204.4L1480 205.8L1500 207.9L1520 210.7L1540 214.0L1560 218.0L1580 222.4L1600 227.3L1620 232.6L1640 238.1" stroke-width="2" stroke-opacity="0.973"/><path d="M-40 461.5L-20 464.9L0 468.1L20 471.1L40 473.7L60 475.9L80 477.6L100 478.6L120 479.0L140 478.7L160 477.7L180 475.8L200 473.1L220 469.6L240 465.2L260 460.0L280 454.1L300 447.5L320 440.2L340 432.3L360 423.9L380 415.0L400 405.9L420 396.5L440 387.0L460 377.5L480 368.0L500 358.8L520 349.8L540 341.1L560 332.9L580 325.2L600 318.1L620 311.5L640 305.6L660 300.4L680 295.8L700 291.9L720 288.6L740 285.9L760 283.8L780 282.1L800 281.0L820 280.1L840 279.6L860 279.3L880 279.2L900 279.1L920 279.0L940 278.8L960 278.5L980 278.0L1000 277.2L1020 276.0L1040 274.6L1060 272.8L1080 270.6L1100 268.1L1120 265.2L1140 262.0L1160 258.6L1180 254.9L1200 251.0L1220 247.1L1240 243.1L1260 239.2L1280 235.4L1300 231.8L1320 228.5L1340 225.5L1360 223.0L1380 221.0L1400 219.5L1420 218.6L1440 218.3L1460 218.7L1480 219.8L1500 221.5L1520 223.9L1540 226.9L1560 230.5L1580 234.6L1600 239.1L1620 244.0L1640 249.3" stroke-width="1.1" stroke-opacity="0.990"/><path d="M-40 469.5L-20 472.6L0 475.5L20 478.3L40 480.7L60 482.8L80 484.4L100 485.5L120 485.9L140 485.7L160 484.7L180 483.0L200 480.4L220 477.1L240 472.9L260 467.9L280 462.2L300 455.7L320 448.6L340 440.8L360 432.5L380 423.7L400 414.6L420 405.2L440 395.7L460 386.0L480 376.5L500 367.0L520 357.9L540 349.0L560 340.6L580 332.6L600 325.2L620 318.4L640 312.3L660 306.8L680 302.0L700 297.9L720 294.4L740 291.6L760 289.4L780 287.7L800 286.6L820 285.9L840 285.5L860 285.4L880 285.6L900 285.8L920 286.1L940 286.4L960 286.5L980 286.5L1000 286.2L1020 285.7L1040 284.9L1060 283.7L1080 282.1L1100 280.2L1120 277.9L1140 275.2L1160 272.3L1180 269.1L1200 265.7L1220 262.1L1240 258.4L1260 254.7L1280 251.1L1300 247.6L1320 244.3L1340 241.4L1360 238.8L1380 236.6L1400 234.9L1420 233.8L1440 233.2L1460 233.3L1480 234.0L1500 235.3L1520 237.3L1540 239.9L1560 243.0L1580 246.7L1600 250.9L1620 255.5L1640 260.4" stroke-width="1.1" stroke-opacity="0.999"/><path d="M-40 477.3L-20 480.0L0 482.7L20 485.2L40 487.4L60 489.4L80 490.9L100 491.9L120 492.4L140 492.2L160 491.4L180 489.8L200 487.4L220 484.2L240 480.3L260 475.5L280 470.0L300 463.7L320 456.7L340 449.1L360 440.9L380 432.3L400 423.2L420 413.9L440 404.4L460 394.7L480 385.1L500 375.5L520 366.2L540 357.2L560 348.5L580 340.4L600 332.7L620 325.7L640 319.3L660 313.6L680 308.6L700 304.2L720 300.6L740 297.7L760 295.4L780 293.7L800 292.6L820 291.9L840 291.7L860 291.8L880 292.2L900 292.7L920 293.4L940 294.0L960 294.6L980 295.1L1000 295.4L1020 295.4L1040 295.2L1060 294.6L1080 293.6L1100 292.2L1120 290.5L1140 288.4L1160 286.0L1180 283.3L1200 280.3L1220 277.1L1240 273.8L1260 270.3L1280 266.9L1300 263.5L1320 260.3L1340 257.3L1360 254.7L1380 252.3L1400 250.5L1420 249.1L1440 248.2L1460 247.9L1480 248.3L1500 249.2L1520 250.8L1540 252.9L1560 255.7L1580 258.9L1600 262.7L1620 266.9L1640 271.4" stroke-width="1.1" stroke-opacity="0.999"/><path d="M-40 485.0L-20 487.3L0 489.6L20 491.8L40 493.9L60 495.7L80 497.1L100 498.1L120 498.5L140 498.4L160 497.7L180 496.2L200 494.0L220 491.0L240 487.3L260 482.7L280 477.4L300 471.4L320 464.6L340 457.2L360 449.3L380 440.8L400 431.8L420 422.6L440 413.1L460 403.5L480 393.8L500 384.2L520 374.8L540 365.6L560 356.8L580 348.4L600 340.6L620 333.4L640 326.7L660 320.8L680 315.6L700 311.1L720 307.3L740 304.2L760 301.8L780 300.1L800 298.9L820 298.3L840 298.2L860 298.4L880 299.0L900 299.8L920 300.8L940 301.9L960 302.9L980 303.8L1000 304.6L1020 305.2L1040 305.5L1060 305.4L1080 305.1L1100 304.3L1120 303.1L1140 301.6L1160 299.7L1180 297.5L1200 294.9L1220 292.1L1240 289.1L1260 286.0L1280 282.7L1300 279.5L1320 276.4L1340 273.4L1360 270.7L1380 268.2L1400 266.2L1420 264.5L1440 263.4L1460 262.8L1480 262.7L1500 263.2L1520 264.3L1540 266.1L1560 268.3L1580 271.1L1600 274.5L1620 278.2L1640 282.3" stroke-width="1.1" stroke-opacity="0.990"/><path d="M-40 492.5L-20 494.4L0 496.4L20 498.3L40 500.1L60 501.7L80 503.0L100 503.9L120 504.3L140 504.3L160 503.6L180 502.3L200 500.2L220 497.5L240 494.0L260 489.7L280 484.6L300 478.8L320 472.3L340 465.2L360 457.4L380 449.1L400 440.4L420 431.3L440 421.9L460 412.3L480 402.6L500 393.0L520 383.5L540 374.3L560 365.4L580 356.9L600 348.9L620 341.4L640 334.6L660 328.5L680 323.0L700 318.4L720 314.4L740 311.2L760 308.7L780 306.9L800 305.7L820 305.1L840 305.0L860 305.4L880 306.2L900 307.2L920 308.5L940 309.8L960 311.3L980 312.6L1000 313.9L1020 315.0L1040 315.8L1060 316.3L1080 316.5L1100 316.3L1120 315.7L1140 314.7L1160 313.3L1180 311.6L1200 309.5L1220 307.1L1240 304.4L1260 301.6L1280 298.6L1300 295.5L1320 292.5L1340 289.5L1360 286.7L1380 284.2L1400 281.9L1420 280.1L1440 278.6L1460 277.7L1480 277.2L1500 277.3L1520 278.0L1540 279.3L1560 281.1L1580 283.4L1600 286.2L1620 289.5L1640 293.2" stroke-width="1.1" stroke-opacity="0.973"/><path d="M-40 500.0L-20 501.4L0 503.0L20 504.6L40 506.1L60 507.5L80 508.6L100 509.5L120 509.9L140 509.8L160 509.2L180 508.0L200 506.2L220 503.6L240 500.3L260 496.3L280 491.6L300 486.0L320 479.8L340 473.0L360 465.4L380 457.4L400 448.9L420 439.9L440 430.7L460 421.2L480 411.6L500 402.0L520 392.6L540 383.3L560 374.3L580 365.6L600 357.5L620 349.9L640 342.9L660 336.6L680 331.0L700 326.1L720 322.0L740 318.6L760 316.0L780 314.1L800 312.8L820 312.2L840 312.2L860 312.7L880 313.6L900 314.8L920 316.3L940 318.0L960 319.8L980 321.6L1000 323.3L1020 324.8L1040 326.1L1060 327.2L1080 327.9L1100 328.3L1120 328.2L1140 327.8L1160 326.9L1180 325.6L1200 324.0L1220 322.0L1240 319.7L1260 317.1L1280 314.4L1300 311.5L1320 308.5L1340 305.6L1360 302.8L1380 300.2L1400 297.7L1420 295.7L1440 293.9L1460 292.6L1480 291.8L1500 291.5L1520 291.7L1540 292.5L1560 293.8L1580 295.7L1600 298.0L1620 300.8L1640 304.1" stroke-width="1.1" stroke-opacity="0.948"/><path d="M-40 507.3L-20 508.3L0 509.5L20 510.7L40 511.9L60 513.1L80 514.1L100 514.8L120 515.2L140 515.1L160 514.6L180 513.5L200 511.8L220 509.5L240 506.5L260 502.7L280 498.2L300 493.0L320 487.1L340 480.5L360 473.3L380 465.6L400 457.3L420 448.6L440 439.5L460 430.2L480 420.7L500 411.2L520 401.8L540 392.5L560 383.4L580 374.8L600 366.5L620 358.8L640 351.6L660 345.1L680 339.4L700 334.3L720 330.0L740 326.5L760 323.7L780 321.7L800 320.4L820 319.8L840 319.7L860 320.3L880 321.3L900 322.7L920 324.4L940 326.4L960 328.4L980 330.6L1000 332.7L1020 334.7L1040 336.5L1060 338.0L1080 339.2L1100 340.1L1120 340.6L1140 340.7L1160 340.3L1180 339.5L1200 338.3L1220 336.8L1240 334.8L1260 332.6L1280 330.1L1300 327.4L1320 324.6L1340 321.7L1360 318.9L1380 316.1L1400 313.6L1420 311.3L1440 309.3L1460 307.7L1480 306.5L1500 305.7L1520 305.5L1540 305.8L1560 306.6L1580 308.0L1600 309.8L1620 312.1L1640 314.9" stroke-width="2" stroke-opacity="0.914"/><path d="M-40 514.6L-20 515.1L0 515.9L20 516.7L40 517.6L60 518.5L80 519.3L100 519.9L120 520.2L140 520.2L160 519.7L180 518.8L200 517.2L220 515.1L240 512.3L260 508.8L280 504.7L300 499.8L320 494.2L340 488.0L360 481.1L380 473.6L400 465.6L420 457.2L440 448.4L460 439.3L480 430.0L500 420.6L520 411.2L540 402.0L560 392.9L580 384.2L600 375.9L620 368.0L640 360.8L660 354.1L680 348.2L700 343.0L720 338.5L740 334.8L760 331.9L780 329.8L800 328.4L820 327.7L840 327.7L860 328.2L880 329.3L900 330.8L920 332.7L940 334.9L960 337.2L980 339.7L1000 342.2L1020 344.6L1040 346.8L1060 348.8L1080 350.5L1100 351.9L1120 352.9L1140 353.5L1160 353.6L1180 353.3L1200 352.6L1220 351.4L1240 349.8L1260 347.9L1280 345.7L1300 343.2L1320 340.5L1340 337.7L1360 334.9L1380 332.1L1400 329.4L1420 326.9L1440 324.7L1460 322.7L1480 321.2L1500 320.0L1520 319.3L1540 319.1L1560 319.4L1580 320.3L1600 321.6L1620 323.4L1640 325.6" stroke-width="1.1" stroke-opacity="0.874"/><path d="M-40 521.8L-20 521.9L0 522.2L20 522.7L40 523.2L60 523.9L80 524.4L100 524.9L120 525.1L140 525.1L160 524.6L180 523.8L200 522.4L220 520.5L240 517.9L260 514.7L280 510.9L300 506.3L320 501.1L340 495.2L360 488.7L380 481.6L400 473.9L420 465.8L440 457.2L460 448.4L480 439.3L500 430.1L520 420.9L540 411.7L560 402.7L580 394.0L600 385.6L620 377.7L640 370.3L660 363.6L680 357.5L700 352.1L720 347.5L740 343.7L760 340.6L780 338.3L800 336.8L820 336.1L840 336.0L860 336.5L880 337.6L900 339.2L920 341.3L940 343.6L960 346.2L980 348.9L1000 351.7L1020 354.5L1040 357.1L1060 359.6L1080 361.8L1100 363.6L1120 365.1L1140 366.2L1160 366.8L1180 366.9L1200 366.6L1220 365.9L1240 364.7L1260 363.1L1280 361.1L1300 358.8L1320 356.3L1340 353.6L1360 350.8L1380 348.0L1400 345.2L1420 342.5L1440 340.0L1460 337.8L1480 335.8L1500 334.3L1520 333.2L1540 332.5L1560 332.3L1580 332.6L1600 333.3L1620 334.6L1640 336.3" stroke-width="1.1" stroke-opacity="0.827"/><path d="M-40 529.1L-20 528.6L0 528.5L20 528.6L40 528.8L60 529.1L80 529.5L100 529.7L120 529.9L140 529.8L160 529.4L180 528.6L200 527.4L220 525.7L240 523.4L260 520.5L280 516.9L300 512.7L320 507.9L340 502.3L360 496.2L380 489.5L400 482.2L420 474.4L440 466.1L460 457.6L480 448.7L500 439.7L520 430.7L540 421.6L560 412.7L580 404.0L600 395.7L620 387.7L640 380.3L660 373.4L680 367.2L700 361.7L720 357.0L740 353.0L760 349.8L780 347.3L800 345.7L820 344.8L840 344.7L860 345.2L880 346.3L900 348.0L920 350.1L940 352.6L960 355.3L980 358.3L1000 361.4L1020 364.5L1040 367.5L1060 370.3L1080 372.9L1100 375.2L1120 377.2L1140 378.7L1160 379.8L1180 380.4L1200 380.5L1220 380.1L1240 379.3L1260 378.0L1280 376.4L1300 374.3L1320 372.0L1340 369.4L1360 366.6L1380 363.8L1400 360.9L1420 358.0L1440 355.3L1460 352.8L1480 350.5L1500 348.6L1520 347.0L1540 345.8L1560 345.1L1580 344.9L1600 345.1L1620 345.8L1640 347.0" stroke-width="1.1" stroke-opacity="0.773"/><path d="M-40 536.3L-20 535.4L0 534.8L20 534.4L40 534.3L60 534.3L80 534.4L100 534.5L120 534.5L140 534.4L160 534.0L180 533.3L200 532.2L220 530.7L240 528.6L260 526.0L280 522.8L300 518.9L320 514.5L340 509.3L360 503.6L380 497.3L400 490.3L420 482.9L440 475.1L460 466.8L480 458.3L500 449.5L520 440.7L540 431.8L560 423.0L580 414.4L600 406.1L620 398.1L640 390.7L660 383.7L680 377.4L700 371.8L720 366.9L740 362.7L760 359.4L780 356.8L800 355.0L820 354.0L840 353.8L860 354.2L880 355.3L900 357.0L920 359.1L940 361.7L960 364.6L980 367.8L1000 371.1L1020 374.5L1040 377.8L1060 381.0L1080 384.0L1100 386.7L1120 389.1L1140 391.0L1160 392.6L1180 393.6L1200 394.2L1220 394.2L1240 393.7L1260 392.8L1280 391.4L1300 389.6L1320 387.5L1340 385.0L1360 382.3L1380 379.4L1400 376.4L1420 373.5L1440 370.5L1460 367.7L1480 365.1L1500 362.8L1520 360.8L1540 359.2L1560 358.0L1580 357.2L1600 356.9L1620 357.0L1640 357.6" stroke-width="1.1" stroke-opacity="0.715"/><path d="M-40 543.6L-20 542.2L0 541.1L20 540.3L40 539.8L60 539.5L80 539.3L100 539.2L120 539.1L140 538.9L160 538.5L180 537.9L200 536.9L220 535.5L240 533.7L260 531.4L280 528.5L300 525.0L320 520.9L340 516.2L360 510.9L380 505.0L400 498.5L420 491.5L440 484.0L460 476.1L480 467.9L500 459.5L520 450.8L540 442.2L560 433.6L580 425.1L600 416.8L620 408.9L640 401.4L660 394.4L680 388.0L700 382.3L720 377.2L740 372.9L760 369.4L780 366.7L800 364.8L820 363.6L840 363.3L860 363.6L880 364.6L900 366.3L920 368.4L940 371.1L960 374.1L980 377.4L1000 380.9L1020 384.5L1040 388.1L1060 391.6L1080 395.0L1100 398.0L1120 400.8L1140 403.2L1160 405.1L1180 406.6L1200 407.6L1220 408.0L1240 407.9L1260 407.3L1280 406.2L1300 404.7L1320 402.7L1340 400.4L1360 397.7L1380 394.9L1400 391.9L1420 388.8L1440 385.6L1460 382.6L1480 379.7L1500 377.0L1520 374.6L1540 372.5L1560 370.8L1580 369.5L1600 368.6L1620 368.2L1640 368.2" stroke-width="1.1" stroke-opacity="0.652"/><path d="M-40 551.0L-20 549.0L0 547.5L20 546.3L40 545.4L60 544.7L80 544.3L100 543.9L120 543.7L140 543.3L160 542.9L180 542.3L200 541.5L220 540.3L240 538.7L260 536.6L280 534.1L300 530.9L320 527.2L340 523.0L360 518.1L380 512.6L400 506.6L420 500.0L440 492.9L460 485.4L480 477.6L500 469.5L520 461.2L540 452.7L560 444.3L580 436.0L600 427.8L620 420.0L640 412.5L660 405.5L680 399.0L700 393.2L720 388.0L740 383.6L760 379.9L780 377.0L800 374.9L820 373.7L840 373.1L860 373.4L880 374.3L900 375.9L920 378.0L940 380.7L960 383.7L980 387.1L1000 390.8L1020 394.6L1040 398.4L1060 402.2L1080 405.8L1100 409.3L1120 412.4L1140 415.2L1160 417.5L1180 419.4L1200 420.7L1220 421.5L1240 421.8L1260 421.6L1280 420.8L1300 419.5L1320 417.7L1340 415.5L1360 413.0L1380 410.2L1400 407.1L1420 403.9L1440 400.6L1460 397.4L1480 394.2L1500 391.1L1520 388.3L1540 385.8L1560 383.6L1580 381.8L1600 380.4L1620 379.4L1640 378.9" stroke-width="1.1" stroke-opacity="0.587"/><path d="M-40 558.4L-20 556.0L0 553.9L20 552.3L40 551.0L60 550.0L80 549.2L100 548.7L120 548.2L140 547.8L160 547.3L180 546.8L200 546.0L220 545.0L240 543.6L260 541.8L280 539.5L300 536.8L320 533.5L340 529.6L360 525.2L380 520.2L400 514.6L420 508.5L440 501.9L460 494.8L480 487.3L500 479.6L520 471.6L540 463.5L560 455.3L580 447.2L600 439.2L620 431.4L640 424.0L660 417.0L680 410.5L700 404.5L720 399.3L740 394.7L760 390.9L780 387.8L800 385.6L820 384.1L840 383.4L860 383.5L880 384.3L900 385.8L920 387.9L940 390.5L960 393.6L980 397.0L1000 400.8L1020 404.7L1040 408.7L1060 412.7L1080 416.7L1100 420.4L1120 423.8L1140 427.0L1160 429.7L1180 431.9L1200 433.6L1220 434.8L1240 435.4L1260 435.5L1280 435.0L1300 434.0L1320 432.4L1340 430.4L1360 428.0L1380 425.2L1400 422.1L1420 418.9L1440 415.5L1460 412.0L1480 408.5L1500 405.2L1520 402.0L1540 399.0L1560 396.4L1580 394.1L1600 392.1L1620 390.6L1640 389.5" stroke-width="2" stroke-opacity="0.519"/><path d="M-40 565.9L-20 563.0L0 560.5L20 558.4L40 556.7L60 555.3L80 554.3L100 553.5L120 552.8L140 552.3L160 551.8L180 551.2L200 550.5L220 549.6L240 548.4L260 546.9L280 544.9L300 542.5L320 539.6L340 536.2L360 532.2L380 527.7L400 522.6L420 516.9L440 510.8L460 504.2L480 497.2L500 489.8L520 482.2L540 474.4L560 466.5L580 458.5L600 450.7L620 443.1L640 435.7L660 428.8L680 422.3L700 416.3L720 410.9L740 406.2L760 402.2L780 399.0L800 396.6L820 394.9L840 394.1L860 394.0L880 394.6L900 396.0L920 398.0L940 400.5L960 403.6L980 407.0L1000 410.8L1020 414.9L1040 419.0L1060 423.2L1080 427.4L1100 431.4L1120 435.1L1140 438.5L1160 441.6L1180 444.1L1200 446.2L1220 447.8L1240 448.7L1260 449.1L1280 448.9L1300 448.1L1320 446.8L1340 445.0L1360 442.7L1380 440.0L1400 436.9L1420 433.6L1440 430.1L1460 426.5L1480 422.8L1500 419.1L1520 415.6L1540 412.2L1560 409.1L1580 406.3L1600 403.8L1620 401.8L1640 400.1" stroke-width="1.1" stroke-opacity="0.450"/></g></svg>
